<?xml version="1.0" encoding="UTF-8"?>
<svg xmlns="http://www.w3.org/2000/svg" viewBox="0 0 128 128">
  <rect width="128" height="128" rx="24" fill="#1a0f08"/>
  <rect x="11" y="11" width="106" height="106" rx="20" fill="#a87027"/>
  <rect x="14" y="14" width="100" height="100" rx="18" fill="#1a0f08"/>
  <rect x="18" y="26" width="92" height="12" fill="#53341c"/>
  <g fill="#ffd700">
    <rect x="26" y="30" width="4" height="8"/>
    <rect x="40" y="30" width="4" height="8"/>
    <rect x="54" y="30" width="4" height="8"/>
    <rect x="68" y="30" width="4" height="8"/>
    <rect x="82" y="30" width="4" height="8"/>
    <rect x="96" y="30" width="4" height="8"/>
  </g>
  <rect x="40" y="34" width="44" height="48" rx="10" fill="#f5f5f5"/>
  <rect x="44" y="42" width="36" height="24" fill="#3e1c0a"/>
  <rect x="38" y="34" width="48" height="6" fill="#dedede"/>
  <rect x="84" y="42" width="12" height="18" rx="6" fill="#dedede"/>
  <rect x="87" y="46" width="6" height="10" rx="3" fill="#1a0f08"/>
  <g fill="#ffffff" fill-opacity="0.65">
    <circle cx="44" cy="24" r="4"/>
    <circle cx="58" cy="20" r="5"/>
    <circle cx="72" cy="24" r="4"/>
  </g>
  <rect x="54" y="86" width="20" height="12" rx="6" fill="#4fc3f7"/>
  <rect x="60" y="82" width="8" height="5" fill="#ffffff"/>
</svg>
